# xmcd
#
# Track frame offsets: 
#        150
#        18472
#        33049
#        47702
#        66025
#        77416
#        90789
#        115329
#        128732
#        144645
#        153896
#        165711
#        181281
#        191347
#        206828
#        218500
#        231112
#
# Disc length: 3254 seconds
#
# Revision: 0
# Processed by: cddbd v1.5.2PL0 Copyright (c) Steve Scherf et al.
# Submitted via: ExactAudioCopy v0.95a4
#
DISCID=d20cb411
DTITLE=Doc Watson - The Definitive Doc Watson [CD2]
DYEAR=2013
DGENRE=Country
TTITLE0=Whistlin' Rufus/Ragtime Annie
TTITLE1=Big Spike Hammer
TTITLE2=Listening To The Rain
TTITLE3=Willlie Moore
TTITLE4=My Rough And Roudy Ways
TTITLE5=The Wreck Of Number Nine
TTITLE6=Omie Wise 
TTITLE7=Shady Grove
TTITLE8=Watson's Blues
TTITLE9=Slidin' Delta 
TTITLE10=Bright Sunny Siouth
TTITLE11=Greenville Trestle High
TTITLE12=I'm Going Back To The Old Home
TTITLE13=George Gudger's Overalls
TTITLE14=The Ninety And Nine
TTITLE15=Your Lonely Journey
TTITLE16=Whiskey Before Breakfast
EXTD=
EXTT0=
EXTT1=
EXTT2=
EXTT3=
EXTT4=
EXTT5=
EXTT6=
EXTT7=
EXTT8=
EXTT9=
EXTT10=
EXTT11=
EXTT12=
EXTT13=
EXTT14=
EXTT15=
EXTT16=
PLAYORDER=
